0
SECTION
2
HEADER
9
$ACADVER
1
AC1009
9
$DWGCODEPAGE
3
ANSI_1252
9
$INSBASE
10
0.0000
20
0.0000
30
0.0000
9
$EXTMIN
10
0.0000
20
-1013.2342
30
0.0000
9
$EXTMAX
10
697.4189
20
-0.0000
30
0.0000
9
$LIMMIN
10
0.0000
20
-1013.2342
9
$LIMMAX
10
697.4189
20
-0.0000
9
$INSUNITS
70
5
9
$LUNITS
70
2
9
$TEXTSTYLE
7
STANDARD
0
ENDSEC
0
SECTION
2
TABLES
0
TABLE
2
LTYPE
70
1
0
LTYPE
2
CONTINUOUS
70
0
3
Solid line
72
65
73
0
40
0.0000
0
ENDTAB
0
TABLE
2
STYLE
70
1
0
STYLE
2
STANDARD
70
0
40
0.0000
41
1.0000
50
0.0000
71
0
42
2.5000
3
txt
4

0
ENDTAB
0
TABLE
2
LAYER
70
5
0
LAYER
2
0
70
0
62
7
6
CONTINUOUS
0
LAYER
2
MURS
70
0
62
1
6
CONTINUOUS
0
LAYER
2
DIAGONALES
70
0
62
8
6
CONTINUOUS
0
LAYER
2
COTES
70
0
62
3
6
CONTINUOUS
0
LAYER
2
NOMS
70
0
62
4
6
CONTINUOUS
0
ENDTAB
0
ENDSEC
0
SECTION
2
ENTITIES
0
POLYLINE
8
MURS
66
1
70
1
10
0.0000
20
0.0000
30
0.0000
0
VERTEX
8
MURS
10
0.0000
20
-3.2277
30
0.0000
0
VERTEX
8
MURS
10
324.5760
20
-2.5275
30
0.0000
0
VERTEX
8
MURS
10
323.8790
20
-399.2339
30
0.0000
0
VERTEX
8
MURS
10
157.2016
20
-396.9504
30
0.0000
0
VERTEX
8
MURS
10
156.5623
20
-369.6643
30
0.0000
0
VERTEX
8
MURS
10
65.1327
20
-364.1106
30
0.0000
0
VERTEX
8
MURS
10
3.5173
20
-276.9775
30
0.0000
0
SEQEND
8
MURS
0
LINE
8
DIAGONALES
10
0.0000
20
-3.2277
30
0.0000
11
156.5623
21
-369.6643
31
0.0000
0
LINE
8
DIAGONALES
10
324.5760
20
-2.5275
30
0.0000
11
156.5623
21
-369.6643
31
0.0000
0
TEXT
8
COTES
10
162.2880
20
-2.8776
30
0.0000
40
4.5900
1
326
50
0.1236
7
STANDARD
72
1
73
2
11
162.2880
21
-2.8776
31
0.0000
0
TEXT
8
COTES
10
324.2275
20
-200.8807
30
0.0000
40
4.5900
1
399
50
89.8993
7
STANDARD
72
1
73
2
11
324.2275
21
-200.8807
31
0.0000
0
TEXT
8
COTES
10
240.5403
20
-398.0922
30
0.0000
40
4.5900
1
166
50
-0.7849
7
STANDARD
72
1
73
2
11
240.5403
21
-398.0922
31
0.0000
0
TEXT
8
COTES
10
156.8819
20
-383.3074
30
0.0000
40
4.5900
1
25
50
-88.6579
7
STANDARD
72
1
73
2
11
156.8819
21
-383.3074
31
0.0000
0
TEXT
8
COTES
10
110.8475
20
-366.8875
30
0.0000
40
4.5900
1
88
50
-3.4761
7
STANDARD
72
1
73
2
11
110.8475
21
-366.8875
31
0.0000
0
TEXT
8
COTES
10
34.3250
20
-320.5440
30
0.0000
40
4.5900
1
100
50
-54.7343
7
STANDARD
72
1
73
2
11
34.3250
21
-320.5440
31
0.0000
0
TEXT
8
COTES
10
1.7586
20
-140.1026
30
0.0000
40
4.5900
1
268
50
-89.2639
7
STANDARD
72
1
73
2
11
1.7586
21
-140.1026
31
0.0000
0
TEXT
8
COTES
10
78.2812
20
-186.4460
30
0.0000
40
4.5900
1
404
50
-66.8651
7
STANDARD
72
1
73
2
11
78.2812
21
-186.4460
31
0.0000
0
TEXT
8
COTES
10
240.5691
20
-186.0959
30
0.0000
40
4.5900
1
402
50
65.4096
7
STANDARD
72
1
73
2
11
240.5691
21
-186.0959
31
0.0000
0
TEXT
8
NOMS
10
162.2880
20
6.6525
30
0.0000
40
9.1800
1
PIECE_1
50
0.0000
7
STANDARD
72
1
73
2
11
162.2880
21
6.6525
31
0.0000
0
POLYLINE
8
MURS
66
1
70
1
10
0.0000
20
0.0000
30
0.0000
0
VERTEX
8
MURS
10
379.6560
20
-0.0000
30
0.0000
0
VERTEX
8
MURS
10
697.4189
20
-0.4872
30
0.0000
0
VERTEX
8
MURS
10
697.3712
20
-296.5368
30
0.0000
0
VERTEX
8
MURS
10
630.5414
20
-363.4474
30
0.0000
0
VERTEX
8
MURS
10
540.4937
20
-363.4969
30
0.0000
0
VERTEX
8
MURS
10
541.2990
20
-399.2339
30
0.0000
0
VERTEX
8
MURS
10
380.0989
20
-398.9788
30
0.0000
0
SEQEND
8
MURS
0
LINE
8
DIAGONALES
10
379.6560
20
-0.0000
30
0.0000
11
540.4937
21
-363.4969
31
0.0000
0
LINE
8
DIAGONALES
10
697.4189
20
-0.4872
30
0.0000
11
540.4937
21
-363.4969
31
0.0000
0
LINE
8
DIAGONALES
10
540.4937
20
-363.4969
30
0.0000
11
380.0989
21
-398.9788
31
0.0000
0
TEXT
8
COTES
10
538.5374
20
-0.2436
30
0.0000
40
4.5900
1
318
50
-0.0878
7
STANDARD
72
1
73
2
11
538.5374
21
-0.2436
31
0.0000
0
TEXT
8
COTES
10
697.3950
20
-148.5120
30
0.0000
40
4.5900
1
296
50
89.9908
7
STANDARD
72
1
73
2
11
697.3950
21
-148.5120
31
0.0000
0
TEXT
8
COTES
10
663.9563
20
-329.9921
30
0.0000
40
4.5900
1
94.5
50
45.0346
7
STANDARD
72
1
73
2
11
663.9563
21
-329.9921
31
0.0000
0
TEXT
8
COTES
10
585.5175
20
-363.4721
30
0.0000
40
4.5900
1
90
50
0.0315
7
STANDARD
72
1
73
2
11
585.5175
21
-363.4721
31
0.0000
0
TEXT
8
COTES
10
540.8963
20
-381.3654
30
0.0000
40
4.5900
1
36
50
-88.7090
7
STANDARD
72
1
73
2
11
540.8963
21
-381.3654
31
0.0000
0
TEXT
8
COTES
10
460.6989
20
-399.1063
30
0.0000
40
4.5900
1
162
50
-0.0907
7
STANDARD
72
1
73
2
11
460.6989
21
-399.1063
31
0.0000
0
TEXT
8
COTES
10
379.8774
20
-199.4894
30
0.0000
40
4.5900
1
399
50
-89.9364
7
STANDARD
72
1
73
2
11
379.8774
21
-199.4894
31
0.0000
0
TEXT
8
COTES
10
460.0748
20
-181.7485
30
0.0000
40
4.5900
1
398
50
-66.1319
7
STANDARD
72
1
73
2
11
460.0748
21
-181.7485
31
0.0000
0
TEXT
8
COTES
10
618.9563
20
-181.9921
30
0.0000
40
4.5900
1
395
50
66.6217
7
STANDARD
72
1
73
2
11
618.9563
21
-181.9921
31
0.0000
0
TEXT
8
COTES
10
460.2963
20
-381.2378
30
0.0000
40
4.5900
1
163
50
12.4738
7
STANDARD
72
1
73
2
11
460.2963
21
-381.2378
31
0.0000
0
TEXT
8
NOMS
10
538.5374
20
9.1800
30
0.0000
40
9.1800
1
PIECE_2
50
0.0000
7
STANDARD
72
1
73
2
11
538.5374
21
9.1800
31
0.0000
0
POLYLINE
8
MURS
66
1
70
1
10
0.0000
20
0.0000
30
0.0000
0
VERTEX
8
MURS
10
0.0000
20
-472.1962
30
0.0000
0
VERTEX
8
MURS
10
37.6059
20
-454.3139
30
0.0000
0
VERTEX
8
MURS
10
96.6832
20
-455.5900
30
0.0000
0
VERTEX
8
MURS
10
94.7867
20
-651.8158
30
0.0000
0
VERTEX
8
MURS
10
1.4144
20
-653.9870
30
0.0000
0
SEQEND
8
MURS
0
LINE
8
DIAGONALES
10
0.0000
20
-472.1962
30
0.0000
11
94.7867
21
-651.8158
31
0.0000
0
TEXT
8
COTES
10
18.8029
20
-463.2551
30
0.0000
40
4.5900
1
44
50
25.4320
7
STANDARD
72
1
73
2
11
18.8029
21
-463.2551
31
0.0000
0
TEXT
8
COTES
10
67.1446
20
-454.9520
30
0.0000
40
4.5900
1
61
50
-1.2374
7
STANDARD
72
1
73
2
11
67.1446
21
-454.9520
31
0.0000
0
TEXT
8
COTES
10
95.7350
20
-553.7029
30
0.0000
40
4.5900
1
195
50
89.4463
7
STANDARD
72
1
73
2
11
95.7350
21
-553.7029
31
0.0000
0
TEXT
8
COTES
10
48.1005
20
-652.9014
30
0.0000
40
4.5900
1
92
50
1.3320
7
STANDARD
72
1
73
2
11
48.1005
21
-652.9014
31
0.0000
0
TEXT
8
COTES
10
0.7072
20
-563.0916
30
0.0000
40
4.5900
1
184
50
-89.5542
7
STANDARD
72
1
73
2
11
0.7072
21
-563.0916
31
0.0000
0
TEXT
8
COTES
10
47.3934
20
-562.0060
30
0.0000
40
4.5900
1
202
50
-62.1790
7
STANDARD
72
1
73
2
11
47.3934
21
-562.0060
31
0.0000
0
TEXT
8
NOMS
10
48.3416
20
-445.1339
30
0.0000
40
9.1800
1
PIECE_3
50
0.0000
7
STANDARD
72
1
73
2
11
48.3416
21
-445.1339
31
0.0000
0
POLYLINE
8
MURS
66
1
70
1
10
0.0000
20
0.0000
30
0.0000
0
VERTEX
8
MURS
10
151.7632
20
-544.6102
30
0.0000
0
VERTEX
8
MURS
10
476.4551
20
-545.4536
30
0.0000
0
VERTEX
8
MURS
10
477.5903
20
-638.6459
30
0.0000
0
VERTEX
8
MURS
10
266.7280
20
-638.8462
30
0.0000
0
VERTEX
8
MURS
10
266.5385
20
-653.4165
30
0.0000
0
VERTEX
8
MURS
10
152.3430
20
-653.9870
30
0.0000
0
SEQEND
8
MURS
0
LINE
8
DIAGONALES
10
476.4551
20
-545.4536
30
0.0000
11
266.7280
21
-638.8462
31
0.0000
0
LINE
8
DIAGONALES
10
151.7632
20
-544.6102
30
0.0000
11
266.7280
21
-638.8462
31
0.0000
0
LINE
8
DIAGONALES
10
266.7280
20
-638.8462
30
0.0000
11
152.3430
21
-653.9870
31
0.0000
0
TEXT
8
COTES
10
314.1092
20
-545.0319
30
0.0000
40
4.5900
1
325
50
-0.1488
7
STANDARD
72
1
73
2
11
314.1092
21
-545.0319
31
0.0000
0
TEXT
8
COTES
10
477.0227
20
-592.0497
30
0.0000
40
4.5900
1
93
50
-89.3021
7
STANDARD
72
1
73
2
11
477.0227
21
-592.0497
31
0.0000
0
TEXT
8
COTES
10
372.1592
20
-638.7460
30
0.0000
40
4.5900
1
212
50
0.0544
7
STANDARD
72
1
73
2
11
372.1592
21
-638.7460
31
0.0000
0
TEXT
8
COTES
10
266.6333
20
-646.1313
30
0.0000
40
4.5900
1
14
50
89.2548
7
STANDARD
72
1
73
2
11
266.6333
21
-646.1313
31
0.0000
0
TEXT
8
COTES
10
209.4407
20
-653.7017
30
0.0000
40
4.5900
1
114
50
0.2862
7
STANDARD
72
1
73
2
11
209.4407
21
-653.7017
31
0.0000
0
TEXT
8
COTES
10
152.0531
20
-599.2986
30
0.0000
40
4.5900
1
110
50
-89.6963
7
STANDARD
72
1
73
2
11
152.0531
21
-599.2986
31
0.0000
0
TEXT
8
COTES
10
371.5916
20
-592.1499
30
0.0000
40
4.5900
1
228
50
24.0037
7
STANDARD
72
1
73
2
11
371.5916
21
-592.1499
31
0.0000
0
TEXT
8
COTES
10
209.2456
20
-591.7282
30
0.0000
40
4.5900
1
149
50
-39.3413
7
STANDARD
72
1
73
2
11
209.2456
21
-591.7282
31
0.0000
0
TEXT
8
COTES
10
209.5355
20
-646.4166
30
0.0000
40
4.5900
1
115
50
7.5402
7
STANDARD
72
1
73
2
11
209.5355
21
-646.4166
31
0.0000
0
TEXT
8
NOMS
10
314.6768
20
-535.4302
30
0.0000
40
9.1800
1
PIECE_4
50
0.0000
7
STANDARD
72
1
73
2
11
314.6768
21
-535.4302
31
0.0000
0
POLYLINE
8
MURS
66
1
70
1
10
0.0000
20
0.0000
30
0.0000
0
VERTEX
8
MURS
10
532.6703
20
-562.1397
30
0.0000
0
VERTEX
8
MURS
10
634.3353
20
-563.2955
30
0.0000
0
VERTEX
8
MURS
10
570.3213
20
-652.8384
30
0.0000
0
VERTEX
8
MURS
10
533.0028
20
-653.9870
30
0.0000
0
SEQEND
8
MURS
0
LINE
8
DIAGONALES
10
533.0028
20
-653.9870
30
0.0000
11
634.3353
21
-563.2955
31
0.0000
0
TEXT
8
COTES
10
583.5028
20
-562.7176
30
0.0000
40
4.5900
1
102
50
-0.6514
7
STANDARD
72
1
73
2
11
583.5028
21
-562.7176
31
0.0000
0
TEXT
8
COTES
10
602.3283
20
-608.0670
30
0.0000
40
4.5900
1
109
50
54.4391
7
STANDARD
72
1
73
2
11
602.3283
21
-608.0670
31
0.0000
0
TEXT
8
COTES
10
551.6620
20
-653.4127
30
0.0000
40
4.5900
1
37
50
1.7628
7
STANDARD
72
1
73
2
11
551.6620
21
-653.4127
31
0.0000
0
TEXT
8
COTES
10
532.8366
20
-608.0633
30
0.0000
40
4.5900
1
93
50
-89.7926
7
STANDARD
72
1
73
2
11
532.8366
21
-608.0633
31
0.0000
0
TEXT
8
COTES
10
583.6691
20
-608.6412
30
0.0000
40
4.5900
1
136
50
41.8282
7
STANDARD
72
1
73
2
11
583.6691
21
-608.6412
31
0.0000
0
TEXT
8
NOMS
10
583.5028
20
-552.9597
30
0.0000
40
9.1800
1
PIECE_5
50
0.0000
7
STANDARD
72
1
73
2
11
583.5028
21
-552.9597
31
0.0000
0
POLYLINE
8
MURS
66
1
70
1
10
0.0000
20
0.0000
30
0.0000
0
VERTEX
8
MURS
10
99.6385
20
-709.0819
30
0.0000
0
VERTEX
8
MURS
10
181.5851
20
-709.0670
30
0.0000
0
VERTEX
8
MURS
10
181.4690
20
-871.1149
30
0.0000
0
VERTEX
8
MURS
10
214.3528
20
-871.1631
30
0.0000
0
VERTEX
8
MURS
10
214.2368
20
-985.2110
30
0.0000
0
VERTEX
8
MURS
10
184.1207
20
-985.2588
30
0.0000
0
VERTEX
8
MURS
10
183.4695
20
-1013.1289
30
0.0000
0
VERTEX
8
MURS
10
0.3078
20
-1013.2342
30
0.0000
0
VERTEX
8
MURS
10
0.0000
20
-790.6649
30
0.0000
0
VERTEX
8
MURS
10
99.6919
20
-791.0968
30
0.0000
0
SEQEND
8
MURS
0
LINE
8
DIAGONALES
10
99.6919
20
-791.0968
30
0.0000
11
181.5851
21
-709.0670
31
0.0000
0
LINE
8
DIAGONALES
10
99.6919
20
-791.0968
30
0.0000
11
184.1207
21
-985.2588
31
0.0000
0
LINE
8
DIAGONALES
10
99.6919
20
-791.0968
30
0.0000
11
183.4695
21
-1013.1289
31
0.0000
0
LINE
8
DIAGONALES
10
99.6919
20
-791.0968
30
0.0000
11
0.3078
21
-1013.2342
31
0.0000
0
TEXT
8
COTES
10
140.6118
20
-709.0744
30
0.0000
40
4.5900
1
82
50
0.0104
7
STANDARD
72
1
73
2
11
140.6118
21
-709.0744
31
0.0000
0
TEXT
8
COTES
10
181.5271
20
-790.0910
30
0.0000
40
4.5900
1
162
50
89.9589
7
STANDARD
72
1
73
2
11
181.5271
21
-790.0910
31
0.0000
0
TEXT
8
COTES
10
197.9109
20
-871.1390
30
0.0000
40
4.5900
1
33
50
-0.0839
7
STANDARD
72
1
73
2
11
197.9109
21
-871.1390
31
0.0000
0
TEXT
8
COTES
10
214.2948
20
-928.1870
30
0.0000
40
4.5900
1
114
50
89.9417
7
STANDARD
72
1
73
2
11
214.2948
21
-928.1870
31
0.0000
0
TEXT
8
COTES
10
199.1787
20
-985.2349
30
0.0000
40
4.5900
1
30
50
0.0909
7
STANDARD
72
1
73
2
11
199.1787
21
-985.2349
31
0.0000
0
TEXT
8
COTES
10
183.7951
20
-999.1938
30
0.0000
40
4.5900
1
29
50
88.6617
7
STANDARD
72
1
73
2
11
183.7951
21
-999.1938
31
0.0000
0
TEXT
8
COTES
10
91.8887
20
-1013.1815
30
0.0000
40
4.5900
1
183
50
0.0329
7
STANDARD
72
1
73
2
11
91.8887
21
-1013.1815
31
0.0000
0
TEXT
8
COTES
10
0.1539
20
-901.9495
30
0.0000
40
4.5900
1
223
50
-89.9208
7
STANDARD
72
1
73
2
11
0.1539
21
-901.9495
31
0.0000
0
TEXT
8
COTES
10
49.8459
20
-790.8808
30
0.0000
40
4.5900
1
100
50
-0.2482
7
STANDARD
72
1
73
2
11
49.8459
21
-790.8808
31
0.0000
0
TEXT
8
COTES
10
99.6652
20
-750.0893
30
0.0000
40
4.5900
1
82
50
-89.9627
7
STANDARD
72
1
73
2
11
99.6652
21
-750.0893
31
0.0000
0
TEXT
8
COTES
10
140.6385
20
-750.0819
30
0.0000
40
4.5900
1
116
50
45.0477
7
STANDARD
72
1
73
2
11
140.6385
21
-750.0819
31
0.0000
0
TEXT
8
COTES
10
141.9063
20
-888.1778
30
0.0000
40
4.5900
1
213
50
-66.4988
7
STANDARD
72
1
73
2
11
141.9063
21
-888.1778
31
0.0000
0
TEXT
8
COTES
10
141.5807
20
-902.1128
30
0.0000
40
4.5900
1
236
50
-69.3274
7
STANDARD
72
1
73
2
11
141.5807
21
-902.1128
31
0.0000
0
TEXT
8
COTES
10
49.9998
20
-902.1655
30
0.0000
40
4.5900
1
243
50
65.8963
7
STANDARD
72
1
73
2
11
49.9998
21
-902.1655
31
0.0000
0
TEXT
8
NOMS
10
107.1764
20
-699.8870
30
0.0000
40
9.1800
1
PIECE_6
50
0.0000
7
STANDARD
72
1
73
2
11
107.1764
21
-699.8870
31
0.0000
0
ENDSEC
0
EOF
