0
SECTION
2
TABLES
0
TABLE
2
LAYER
70
4
0
LAYER
2
MURS
70
0
62
1
6
CONTINUOUS
0
LAYER
2
DIAGONALES
70
0
62
8
6
CONTINUOUS
0
LAYER
2
COTES
70
0
62
3
6
CONTINUOUS
0
LAYER
2
NOMS
70
0
62
4
6
CONTINUOUS
0
ENDTAB
0
ENDSEC
0
SECTION
2
ENTITIES
0
LINE
8
MURS
10
0.0000
20
0.0000
30
0.0000
11
321.9659
21
-51.1263
31
0.0000
0
LINE
8
MURS
10
321.9659
20
-51.1263
30
0.0000
11
337.9880
21
-449.8050
31
0.0000
0
LINE
8
MURS
10
337.9880
20
-449.8050
30
0.0000
11
174.5151
21
-420.9418
31
0.0000
0
LINE
8
MURS
10
174.5151
20
-420.9418
30
0.0000
11
178.8650
21
-396.3230
31
0.0000
0
LINE
8
MURS
10
178.8650
20
-396.3230
30
0.0000
11
92.2107
21
-381.0005
31
0.0000
0
LINE
8
MURS
10
92.2107
20
-381.0005
30
0.0000
11
65.8589
21
-272.1443
31
0.0000
0
LINE
8
MURS
10
65.8589
20
-272.1443
30
0.0000
11
0.0000
21
0.0000
31
0.0000
0
LINE
8
DIAGONALES
10
0.0000
20
0.0000
30
0.0000
11
92.2107
21
-381.0005
31
0.0000
0
LINE
8
DIAGONALES
10
321.9659
20
-51.1263
30
0.0000
11
92.2107
21
-381.0005
31
0.0000
0
TEXT
8
COTES
10
160.9829
20
-25.5632
30
0.0000
40
12.0000
1
326
50
-9.0229
72
1
73
2
11
160.9829
21
-25.5632
31
0.0000
0
TEXT
8
COTES
10
329.9769
20
-250.4656
30
0.0000
40
12.0000
1
399
50
-87.6986
72
1
73
2
11
329.9769
21
-250.4656
31
0.0000
0
TEXT
8
COTES
10
256.2515
20
-435.3734
30
0.0000
40
12.0000
1
166
50
-10.0131
72
1
73
2
11
256.2515
21
-435.3734
31
0.0000
0
TEXT
8
COTES
10
176.6900
20
-408.6324
30
0.0000
40
12.0000
1
25
50
79.9799
72
1
73
2
11
176.6900
21
-408.6324
31
0.0000
0
TEXT
8
COTES
10
135.5378
20
-388.6617
30
0.0000
40
12.0000
1
88
50
-10.0276
72
1
73
2
11
135.5378
21
-388.6617
31
0.0000
0
TEXT
8
COTES
10
79.0348
20
-326.5724
30
0.0000
40
12.0000
1
100
50
-76.3917
72
1
73
2
11
79.0348
21
-326.5724
31
0.0000
0
TEXT
8
COTES
10
32.9294
20
-136.0721
30
0.0000
40
12.0000
1
268
50
-76.3960
72
1
73
2
11
32.9294
21
-136.0721
31
0.0000
0
TEXT
8
COTES
10
46.1054
20
-190.5002
30
0.0000
40
12.0000
1
404
50
-76.3947
72
1
73
2
11
46.1054
21
-190.5002
31
0.0000
0
TEXT
8
COTES
10
207.0883
20
-216.0634
30
0.0000
40
12.0000
1
402
50
55.1431
72
1
73
2
11
207.0883
21
-216.0634
31
0.0000
0
TEXT
8
NOMS
10
167.3434
20
-281.6201
30
0.0000
40
25.0000
1
PIECE_1
50
0.0000
72
1
73
2
11
167.3434
21
-281.6201
31
0.0000
0
LINE
8
MURS
10
457.9880
20
-50.8331
30
0.0000
11
775.9866
21
-49.9984
31
0.0000
0
LINE
8
MURS
10
775.9866
20
-49.9984
30
0.0000
11
776.7659
21
-345.9961
31
0.0000
0
LINE
8
MURS
10
776.7659
20
-345.9961
30
0.0000
11
711.6743
21
-414.5038
31
0.0000
0
LINE
8
MURS
10
711.6743
20
-414.5038
30
0.0000
11
621.6785
21
-413.6123
31
0.0000
0
LINE
8
MURS
10
621.6785
20
-413.6123
30
0.0000
11
624.7459
21
-449.4817
31
0.0000
0
LINE
8
MURS
10
624.7459
20
-449.4817
30
0.0000
11
462.7469
21
-449.8050
31
0.0000
0
LINE
8
MURS
10
462.7469
20
-449.8050
30
0.0000
11
457.9880
21
-50.8331
31
0.0000
0
LINE
8
DIAGONALES
10
457.9880
20
-50.8331
30
0.0000
11
621.6785
21
-413.6123
31
0.0000
0
LINE
8
DIAGONALES
10
775.9866
20
-49.9984
30
0.0000
11
621.6785
21
-413.6123
31
0.0000
0
LINE
8
DIAGONALES
10
621.6785
20
-413.6123
30
0.0000
11
462.7469
21
-449.8050
31
0.0000
0
TEXT
8
COTES
10
616.9873
20
-50.4158
30
0.0000
40
12.0000
1
318
50
0.1504
72
1
73
2
11
616.9873
21
-50.4158
31
0.0000
0
TEXT
8
COTES
10
776.3762
20
-197.9972
30
0.0000
40
12.0000
1
296
50
-89.8491
72
1
73
2
11
776.3762
21
-197.9972
31
0.0000
0
TEXT
8
COTES
10
744.2201
20
-380.2499
30
0.0000
40
12.0000
1
94.5
50
46.4647
72
1
73
2
11
744.2201
21
-380.2499
31
0.0000
0
TEXT
8
COTES
10
666.6764
20
-414.0581
30
0.0000
40
12.0000
1
90
50
-0.5676
72
1
73
2
11
666.6764
21
-414.0581
31
0.0000
0
TEXT
8
COTES
10
623.2122
20
-431.5470
30
0.0000
40
12.0000
1
36
50
-85.1122
72
1
73
2
11
623.2122
21
-431.5470
31
0.0000
0
TEXT
8
COTES
10
543.7464
20
-449.6433
30
0.0000
40
12.0000
1
162
50
0.1143
72
1
73
2
11
543.7464
21
-449.6433
31
0.0000
0
TEXT
8
COTES
10
460.3674
20
-250.3190
30
0.0000
40
12.0000
1
399
50
-89.3166
72
1
73
2
11
460.3674
21
-250.3190
31
0.0000
0
TEXT
8
COTES
10
539.8333
20
-232.2227
30
0.0000
40
12.0000
1
398
50
-65.7145
72
1
73
2
11
539.8333
21
-232.2227
31
0.0000
0
TEXT
8
COTES
10
698.8325
20
-231.8054
30
0.0000
40
12.0000
1
395
50
67.0049
72
1
73
2
11
698.8325
21
-231.8054
31
0.0000
0
TEXT
8
COTES
10
542.2127
20
-431.7086
30
0.0000
40
12.0000
1
163
50
12.8289
72
1
73
2
11
542.2127
21
-431.7086
31
0.0000
0
TEXT
8
NOMS
10
633.0837
20
-310.6043
30
0.0000
40
25.0000
1
PIECE_2
50
0.0000
72
1
73
2
11
633.0837
21
-310.6043
31
0.0000
0
LINE
8
MURS
10
5.0616
20
-582.1298
30
0.0000
11
36.9542
21
-612.4421
31
0.0000
0
LINE
8
MURS
10
36.9542
20
-612.4421
30
0.0000
11
80.5784
21
-569.8050
31
0.0000
0
LINE
8
MURS
10
80.5784
20
-569.8050
30
0.0000
11
91.9859
21
-764.4710
31
0.0000
0
LINE
8
MURS
10
91.9859
20
-764.4710
30
0.0000
11
0.0000
21
-766.0601
31
0.0000
0
LINE
8
MURS
10
0.0000
20
-766.0601
30
0.0000
11
5.0616
21
-582.1298
31
0.0000
0
LINE
8
DIAGONALES
10
5.0616
20
-582.1298
30
0.0000
11
91.9859
21
-764.4710
31
0.0000
0
LINE
8
DIAGONALES
10
36.9542
20
-612.4421
30
0.0000
11
0.0000
21
-766.0601
31
0.0000
0
TEXT
8
COTES
10
21.0079
20
-597.2860
30
0.0000
40
12.0000
1
44
50
-43.5447
72
1
73
2
11
21.0079
21
-597.2860
31
0.0000
0
TEXT
8
COTES
10
58.7663
20
-591.1235
30
0.0000
40
12.0000
1
61
50
44.3444
72
1
73
2
11
58.7663
21
-591.1235
31
0.0000
0
TEXT
8
COTES
10
86.2822
20
-667.1380
30
0.0000
40
12.0000
1
195
50
-86.6463
72
1
73
2
11
86.2822
21
-667.1380
31
0.0000
0
TEXT
8
COTES
10
45.9930
20
-765.2655
30
0.0000
40
12.0000
1
92
50
0.9897
72
1
73
2
11
45.9930
21
-765.2655
31
0.0000
0
TEXT
8
COTES
10
2.5308
20
-674.0950
30
0.0000
40
12.0000
1
184
50
88.4237
72
1
73
2
11
2.5308
21
-674.0950
31
0.0000
0
TEXT
8
COTES
10
48.5238
20
-673.3004
30
0.0000
40
12.0000
1
202
50
-64.5123
72
1
73
2
11
48.5238
21
-673.3004
31
0.0000
0
TEXT
8
COTES
10
18.4771
20
-689.2511
30
0.0000
40
12.0000
1
158
50
76.4740
72
1
73
2
11
18.4771
21
-689.2511
31
0.0000
0
TEXT
8
NOMS
10
42.9160
20
-658.9816
30
0.0000
40
25.0000
1
PIECE_3
50
0.0000
72
1
73
2
11
42.9160
21
-658.9816
31
0.0000
0
LINE
8
MURS
10
215.3538
20
-652.8213
30
0.0000
11
539.4069
21
-628.0355
31
0.0000
0
LINE
8
MURS
10
539.4069
20
-628.0355
30
0.0000
11
536.1942
21
-720.9800
31
0.0000
0
LINE
8
MURS
10
536.1942
20
-720.9800
30
0.0000
11
326.4868
21
-752.0706
31
0.0000
0
LINE
8
MURS
10
326.4868
20
-752.0706
30
0.0000
11
325.9385
21
-766.0601
31
0.0000
0
LINE
8
MURS
10
325.9385
20
-766.0601
30
0.0000
11
211.9859
21
-762.7701
31
0.0000
0
LINE
8
MURS
10
211.9859
20
-762.7701
30
0.0000
11
215.3538
21
-652.8213
31
0.0000
0
LINE
8
DIAGONALES
10
215.3538
20
-652.8213
30
0.0000
11
536.1942
21
-720.9800
31
0.0000
0
LINE
8
DIAGONALES
10
215.3538
20
-652.8213
30
0.0000
11
326.4868
21
-752.0706
31
0.0000
0
LINE
8
DIAGONALES
10
326.4868
20
-752.0706
30
0.0000
11
211.9859
21
-762.7701
31
0.0000
0
TEXT
8
COTES
10
377.3803
20
-640.4284
30
0.0000
40
12.0000
1
325
50
4.3739
72
1
73
2
11
377.3803
21
-640.4284
31
0.0000
0
TEXT
8
COTES
10
537.8006
20
-674.5077
30
0.0000
40
12.0000
1
93
50
88.0203
72
1
73
2
11
537.8006
21
-674.5077
31
0.0000
0
TEXT
8
COTES
10
431.3405
20
-736.5253
30
0.0000
40
12.0000
1
212
50
8.4331
72
1
73
2
11
431.3405
21
-736.5253
31
0.0000
0
TEXT
8
COTES
10
326.2127
20
-759.0654
30
0.0000
40
12.0000
1
14
50
87.7556
72
1
73
2
11
326.2127
21
-759.0654
31
0.0000
0
TEXT
8
COTES
10
268.9622
20
-764.4151
30
0.0000
40
12.0000
1
114
50
-1.6538
72
1
73
2
11
268.9622
21
-764.4151
31
0.0000
0
TEXT
8
COTES
10
213.6698
20
-707.7957
30
0.0000
40
12.0000
1
110
50
88.2455
72
1
73
2
11
213.6698
21
-707.7957
31
0.0000
0
TEXT
8
COTES
10
375.7740
20
-686.9007
30
0.0000
40
12.0000
1
328
50
-11.9935
72
1
73
2
11
375.7740
21
-686.9007
31
0.0000
0
TEXT
8
COTES
10
270.9203
20
-702.4460
30
0.0000
40
12.0000
1
149
50
-41.7670
72
1
73
2
11
270.9203
21
-702.4460
31
0.0000
0
TEXT
8
COTES
10
269.2364
20
-757.4204
30
0.0000
40
12.0000
1
115
50
5.3385
72
1
73
2
11
269.2364
21
-757.4204
31
0.0000
0
TEXT
8
NOMS
10
359.2277
20
-713.7896
30
0.0000
40
25.0000
1
PIECE_4
50
0.0000
72
1
73
2
11
359.2277
21
-713.7896
31
0.0000
0
LINE
8
MURS
10
659.4069
20
-666.4144
30
0.0000
11
758.2195
21
-641.1154
31
0.0000
0
LINE
8
MURS
10
758.2195
20
-641.1154
30
0.0000
11
806.3186
21
-698.6602
31
0.0000
0
LINE
8
MURS
10
806.3186
20
-698.6602
30
0.0000
11
720.6553
21
-766.0601
31
0.0000
0
LINE
8
MURS
10
720.6553
20
-766.0601
30
0.0000
11
685.1084
21
-755.7924
31
0.0000
0
LINE
8
MURS
10
685.1084
20
-755.7924
30
0.0000
11
659.4069
21
-666.4144
31
0.0000
0
LINE
8
DIAGONALES
10
685.1084
20
-755.7924
30
0.0000
11
758.2195
21
-641.1154
31
0.0000
0
LINE
8
DIAGONALES
10
685.1084
20
-755.7924
30
0.0000
11
806.3186
21
-698.6602
31
0.0000
0
TEXT
8
COTES
10
708.8132
20
-653.7649
30
0.0000
40
12.0000
1
102
50
14.3609
72
1
73
2
11
708.8132
21
-653.7649
31
0.0000
0
TEXT
8
COTES
10
782.2690
20
-669.8878
30
0.0000
40
12.0000
1
75
50
-50.1092
72
1
73
2
11
782.2690
21
-669.8878
31
0.0000
0
TEXT
8
COTES
10
763.4869
20
-732.3601
30
0.0000
40
12.0000
1
109
50
38.1957
72
1
73
2
11
763.4869
21
-732.3601
31
0.0000
0
TEXT
8
COTES
10
702.8818
20
-760.9262
30
0.0000
40
12.0000
1
37
50
-16.1113
72
1
73
2
11
702.8818
21
-760.9262
31
0.0000
0
TEXT
8
COTES
10
672.2577
20
-711.1034
30
0.0000
40
12.0000
1
93
50
-73.9569
72
1
73
2
11
672.2577
21
-711.1034
31
0.0000
0
TEXT
8
COTES
10
721.6639
20
-698.4539
30
0.0000
40
12.0000
1
136
50
57.4809
72
1
73
2
11
721.6639
21
-698.4539
31
0.0000
0
TEXT
8
COTES
10
745.7135
20
-727.2263
30
0.0000
40
12.0000
1
134
50
25.2368
72
1
73
2
11
745.7135
21
-727.2263
31
0.0000
0
TEXT
8
NOMS
10
725.9417
20
-705.6085
30
0.0000
40
25.0000
1
PIECE_5
50
0.0000
72
1
73
2
11
725.9417
21
-705.6085
31
0.0000
0
LINE
8
MURS
10
120.6093
20
-896.7400
30
0.0000
11
201.9112
21
-886.0601
31
0.0000
0
LINE
8
MURS
10
201.9112
20
-886.0601
30
0.0000
11
264.7757
21
-1035.3651
31
0.0000
0
LINE
8
MURS
10
264.7757
20
-1035.3651
30
0.0000
11
295.1906
21
-1022.5593
31
0.0000
0
LINE
8
MURS
10
295.1906
20
-1022.5593
30
0.0000
11
253.8330
21
-1128.7920
31
0.0000
0
LINE
8
MURS
10
253.8330
20
-1128.7920
30
0.0000
11
225.8766
21
-1117.9085
31
0.0000
0
LINE
8
MURS
10
225.8766
20
-1117.9085
30
0.0000
11
215.3564
21
-1144.9329
31
0.0000
0
LINE
8
MURS
10
215.3564
20
-1144.9329
30
0.0000
11
34.6690
21
-1173.9329
31
0.0000
0
LINE
8
MURS
10
34.6690
20
-1173.9329
30
0.0000
11
0.0000
21
-953.6447
31
0.0000
0
LINE
8
MURS
10
0.0000
20
-953.6447
30
0.0000
11
99.0089
21
-939.6055
31
0.0000
0
LINE
8
MURS
10
99.0089
20
-939.6055
30
0.0000
11
120.6093
21
-896.7400
31
0.0000
0
LINE
8
DIAGONALES
10
99.0089
20
-939.6055
30
0.0000
11
201.9112
21
-886.0601
31
0.0000
0
LINE
8
DIAGONALES
10
99.0089
20
-939.6055
30
0.0000
11
295.1906
21
-1022.5593
31
0.0000
0
LINE
8
DIAGONALES
10
99.0089
20
-939.6055
30
0.0000
11
215.3564
21
-1144.9329
31
0.0000
0
LINE
8
DIAGONALES
10
99.0089
20
-939.6055
30
0.0000
11
34.6690
21
-1173.9329
31
0.0000
0
TEXT
8
COTES
10
161.2602
20
-891.4000
30
0.0000
40
12.0000
1
82
50
7.4836
72
1
73
2
11
161.2602
21
-891.4000
31
0.0000
0
TEXT
8
COTES
10
233.3434
20
-960.7126
30
0.0000
40
12.0000
1
162
50
-67.1666
72
1
73
2
11
233.3434
21
-960.7126
31
0.0000
0
TEXT
8
COTES
10
279.9831
20
-1028.9622
30
0.0000
40
12.0000
1
33
50
22.8330
72
1
73
2
11
279.9831
21
-1028.9622
31
0.0000
0
TEXT
8
COTES
10
274.5118
20
-1075.6757
30
0.0000
40
12.0000
1
114
50
68.7285
72
1
73
2
11
274.5118
21
-1075.6757
31
0.0000
0
TEXT
8
COTES
10
239.8548
20
-1123.3503
30
0.0000
40
12.0000
1
30
50
-21.2711
72
1
73
2
11
239.8548
21
-1123.3503
31
0.0000
0
TEXT
8
COTES
10
220.6165
20
-1131.4207
30
0.0000
40
12.0000
1
29
50
68.7297
72
1
73
2
11
220.6165
21
-1131.4207
31
0.0000
0
TEXT
8
COTES
10
125.0127
20
-1159.4329
30
0.0000
40
12.0000
1
183
50
9.1181
72
1
73
2
11
125.0127
21
-1159.4329
31
0.0000
0
TEXT
8
COTES
10
17.3345
20
-1063.7888
30
0.0000
40
12.0000
1
223
50
-81.0561
72
1
73
2
11
17.3345
21
-1063.7888
31
0.0000
0
TEXT
8
COTES
10
49.5045
20
-946.6251
30
0.0000
40
12.0000
1
100
50
8.0706
72
1
73
2
11
49.5045
21
-946.6251
31
0.0000
0
TEXT
8
COTES
10
109.8091
20
-918.1727
30
0.0000
40
12.0000
1
48
50
63.2560
72
1
73
2
11
109.8091
21
-918.1727
31
0.0000
0
TEXT
8
COTES
10
150.4601
20
-912.8328
30
0.0000
40
12.0000
1
116
50
27.4903
72
1
73
2
11
150.4601
21
-912.8328
31
0.0000
0
TEXT
8
COTES
10
197.0998
20
-981.0824
30
0.0000
40
12.0000
1
213
50
-22.9207
72
1
73
2
11
197.0998
21
-981.0824
31
0.0000
0
TEXT
8
COTES
10
157.1827
20
-1042.2692
30
0.0000
40
12.0000
1
236
50
-60.4622
72
1
73
2
11
157.1827
21
-1042.2692
31
0.0000
0
TEXT
8
COTES
10
66.8390
20
-1056.7692
30
0.0000
40
12.0000
1
243
50
74.6465
72
1
73
2
11
66.8390
21
-1056.7692
31
0.0000
0
TEXT
8
NOMS
10
171.1231
20
-1029.9541
30
0.0000
40
25.0000
1
PIECE_6
50
0.0000
72
1
73
2
11
171.1231
21
-1029.9541
31
0.0000
0
ENDSEC
0
EOF
