0
SECTION
2
HEADER
9
$ACADVER
1
AC1009
9
$INSBASE
10
0.0000
20
0.0000
30
0.0000
9
$EXTMIN
10
0.0000
20
-1203.0459
30
0.0000
9
$EXTMAX
10
823.5692
20
0.0000
30
0.0000
9
$LIMMIN
10
0.0000
20
-1203.0459
9
$LIMMAX
10
823.5692
20
0.0000
9
$INSUNITS
70
5
9
$LUNITS
70
2
9
$TEXTSTYLE
7
STANDARD
0
ENDSEC
0
SECTION
2
TABLES
0
TABLE
2
LTYPE
70
1
0
LTYPE
2
CONTINUOUS
70
0
3
Solid line
72
65
73
0
40
0.0000
0
ENDTAB
0
TABLE
2
STYLE
70
1
0
STYLE
2
STANDARD
70
0
40
0.0000
41
1.0000
50
0.0000
71
0
42
2.5000
3
txt
4

0
ENDTAB
0
TABLE
2
LAYER
70
5
0
LAYER
2
0
70
0
62
7
6
CONTINUOUS
0
LAYER
2
MURS
70
0
62
1
6
CONTINUOUS
0
LAYER
2
DIAGONALES
70
0
62
8
6
CONTINUOUS
0
LAYER
2
COTES
70
0
62
3
6
CONTINUOUS
0
LAYER
2
NOMS
70
0
62
4
6
CONTINUOUS
0
ENDTAB
0
ENDSEC
0
SECTION
2
ENTITIES
0
POLYLINE
8
MURS
66
1
70
1
10
0.0000
20
0.0000
30
0.0000
0
VERTEX
8
MURS
10
0.0000
20
-3.0288
30
0.0000
0
VERTEX
8
MURS
10
324.3143
20
-2.5803
30
0.0000
0
VERTEX
8
MURS
10
323.4614
20
-399.3080
30
0.0000
0
VERTEX
8
MURS
10
156.6286
20
-397.0481
30
0.0000
0
VERTEX
8
MURS
10
155.8458
20
-369.7871
30
0.0000
0
VERTEX
8
MURS
10
64.1542
20
-364.4970
30
0.0000
0
VERTEX
8
MURS
10
3.7619
20
-276.5149
30
0.0000
0
SEQEND
8
MURS
0
LINE
8
DIAGONALES
10
0.0000
20
-3.0288
30
0.0000
11
155.8458
21
-369.7871
31
0.0000
0
LINE
8
DIAGONALES
10
324.3143
20
-2.5803
30
0.0000
11
155.8458
21
-369.7871
31
0.0000
0
TEXT
8
COTES
10
162.1571
20
-2.8046
30
0.0000
40
12.0000
1
326
50
0.0792
7
STANDARD
72
1
73
2
11
162.1571
21
-2.8046
31
0.0000
0
TEXT
8
COTES
10
323.8878
20
-200.9441
30
0.0000
40
12.0000
1
399
50
89.8768
7
STANDARD
72
1
73
2
11
323.8878
21
-200.9441
31
0.0000
0
TEXT
8
COTES
10
240.0450
20
-398.1781
30
0.0000
40
12.0000
1
166
50
-0.7761
7
STANDARD
72
1
73
2
11
240.0450
21
-398.1781
31
0.0000
0
TEXT
8
COTES
10
156.2372
20
-383.4176
30
0.0000
40
12.0000
1
25
50
-88.3552
7
STANDARD
72
1
73
2
11
156.2372
21
-383.4176
31
0.0000
0
TEXT
8
COTES
10
110.0000
20
-367.1420
30
0.0000
40
12.0000
1
88
50
-3.3019
7
STANDARD
72
1
73
2
11
110.0000
21
-367.1420
31
0.0000
0
TEXT
8
COTES
10
33.9580
20
-320.5060
30
0.0000
40
12.0000
1
100
50
-55.5337
7
STANDARD
72
1
73
2
11
33.9580
21
-320.5060
31
0.0000
0
TEXT
8
COTES
10
1.8809
20
-139.7719
30
0.0000
40
12.0000
1
268
50
-89.2119
7
STANDARD
72
1
73
2
11
1.8809
21
-139.7719
31
0.0000
0
TEXT
8
COTES
10
77.9229
20
-186.4079
30
0.0000
40
12.0000
1
404
50
-66.9780
7
STANDARD
72
1
73
2
11
77.9229
21
-186.4079
31
0.0000
0
TEXT
8
COTES
10
240.0800
20
-186.1837
30
0.0000
40
12.0000
1
402
50
65.3551
7
STANDARD
72
1
73
2
11
240.0800
21
-186.1837
31
0.0000
0
TEXT
8
NOMS
10
162.1571
20
22.4197
30
0.0000
40
25.0000
1
PIECE_1
50
0.0000
7
STANDARD
72
1
73
2
11
162.1571
21
22.4197
31
0.0000
0
POLYLINE
8
MURS
66
1
70
1
10
0.0000
20
0.0000
30
0.0000
0
VERTEX
8
MURS
10
474.3143
20
0.0000
30
0.0000
0
VERTEX
8
MURS
10
791.7523
20
-0.2198
30
0.0000
0
VERTEX
8
MURS
10
791.4099
20
-295.9278
30
0.0000
0
VERTEX
8
MURS
10
725.8745
20
-363.9113
30
0.0000
0
VERTEX
8
MURS
10
635.5327
20
-363.6207
30
0.0000
0
VERTEX
8
MURS
10
636.2564
20
-399.3080
30
0.0000
0
VERTEX
8
MURS
10
474.9742
20
-399.0013
30
0.0000
0
SEQEND
8
MURS
0
LINE
8
DIAGONALES
10
474.3143
20
0.0000
30
0.0000
11
635.5327
21
-363.6207
31
0.0000
0
LINE
8
DIAGONALES
10
791.7523
20
-0.2198
30
0.0000
11
635.5327
21
-363.6207
31
0.0000
0
LINE
8
DIAGONALES
10
635.5327
20
-363.6207
30
0.0000
11
474.9742
21
-399.0013
31
0.0000
0
TEXT
8
COTES
10
633.0333
20
-0.1099
30
0.0000
40
12.0000
1
318
50
-0.0397
7
STANDARD
72
1
73
2
11
633.0333
21
-0.1099
31
0.0000
0
TEXT
8
COTES
10
791.5811
20
-148.0738
30
0.0000
40
12.0000
1
296
50
89.9336
7
STANDARD
72
1
73
2
11
791.5811
21
-148.0738
31
0.0000
0
TEXT
8
COTES
10
758.6422
20
-329.9196
30
0.0000
40
12.0000
1
94.5
50
46.0504
7
STANDARD
72
1
73
2
11
758.6422
21
-329.9196
31
0.0000
0
TEXT
8
COTES
10
680.7036
20
-363.7660
30
0.0000
40
12.0000
1
90
50
-0.1843
7
STANDARD
72
1
73
2
11
680.7036
21
-363.7660
31
0.0000
0
TEXT
8
COTES
10
635.8946
20
-381.4644
30
0.0000
40
12.0000
1
36
50
-88.8383
7
STANDARD
72
1
73
2
11
635.8946
21
-381.4644
31
0.0000
0
TEXT
8
COTES
10
555.6153
20
-399.1547
30
0.0000
40
12.0000
1
162
50
-0.1090
7
STANDARD
72
1
73
2
11
555.6153
21
-399.1547
31
0.0000
0
TEXT
8
COTES
10
474.6443
20
-199.5006
30
0.0000
40
12.0000
1
399
50
-89.9052
7
STANDARD
72
1
73
2
11
474.6443
21
-199.5006
31
0.0000
0
TEXT
8
COTES
10
554.9235
20
-181.8104
30
0.0000
40
12.0000
1
398
50
-66.0890
7
STANDARD
72
1
73
2
11
554.9235
21
-181.8104
31
0.0000
0
TEXT
8
COTES
10
713.6425
20
-181.9203
30
0.0000
40
12.0000
1
395
50
66.7380
7
STANDARD
72
1
73
2
11
713.6425
21
-181.9203
31
0.0000
0
TEXT
8
COTES
10
555.2535
20
-381.3110
30
0.0000
40
12.0000
1
163
50
12.4271
7
STANDARD
72
1
73
2
11
555.2535
21
-381.3110
31
0.0000
0
TEXT
8
NOMS
10
633.0333
20
25.0000
30
0.0000
40
25.0000
1
PIECE_2
50
0.0000
7
STANDARD
72
1
73
2
11
633.0333
21
25.0000
31
0.0000
0
POLYLINE
8
MURS
66
1
70
1
10
0.0000
20
0.0000
30
0.0000
0
VERTEX
8
MURS
10
0.0000
20
-567.0749
30
0.0000
0
VERTEX
8
MURS
10
37.6890
20
-549.3080
30
0.0000
0
VERTEX
8
MURS
10
96.7382
20
-550.5392
30
0.0000
0
VERTEX
8
MURS
10
94.8124
20
-746.7207
30
0.0000
0
VERTEX
8
MURS
10
1.4271
20
-748.8787
30
0.0000
0
SEQEND
8
MURS
0
LINE
8
DIAGONALES
10
0.0000
20
-567.0749
30
0.0000
11
94.8124
21
-746.7207
31
0.0000
0
TEXT
8
COTES
10
18.8445
20
-558.1915
30
0.0000
40
12.0000
1
44
50
25.2396
7
STANDARD
72
1
73
2
11
18.8445
21
-558.1915
31
0.0000
0
TEXT
8
COTES
10
67.2136
20
-549.9236
30
0.0000
40
12.0000
1
61
50
-1.1945
7
STANDARD
72
1
73
2
11
67.2136
21
-549.9236
31
0.0000
0
TEXT
8
COTES
10
95.7753
20
-648.6300
30
0.0000
40
12.0000
1
195
50
89.4376
7
STANDARD
72
1
73
2
11
95.7753
21
-648.6300
31
0.0000
0
TEXT
8
COTES
10
48.1197
20
-747.7997
30
0.0000
40
12.0000
1
92
50
1.3238
7
STANDARD
72
1
73
2
11
48.1197
21
-747.7997
31
0.0000
0
TEXT
8
COTES
10
0.7135
20
-657.9768
30
0.0000
40
12.0000
1
184
50
-89.5503
7
STANDARD
72
1
73
2
11
0.7135
21
-657.9768
31
0.0000
0
TEXT
8
COTES
10
47.4062
20
-656.8978
30
0.0000
40
12.0000
1
202
50
-62.1761
7
STANDARD
72
1
73
2
11
47.4062
21
-656.8978
31
0.0000
0
TEXT
8
NOMS
10
48.3691
20
-533.1850
30
0.0000
40
16.1230
1
PIECE_3
50
0.0000
7
STANDARD
72
1
73
2
11
48.3691
21
-533.1850
31
0.0000
0
POLYLINE
8
MURS
66
1
70
1
10
0.0000
20
0.0000
30
0.0000
0
VERTEX
8
MURS
10
246.7382
20
-639.5019
30
0.0000
0
VERTEX
8
MURS
10
571.4301
20
-640.3453
30
0.0000
0
VERTEX
8
MURS
10
572.5653
20
-733.5376
30
0.0000
0
VERTEX
8
MURS
10
361.7030
20
-733.7379
30
0.0000
0
VERTEX
8
MURS
10
361.5135
20
-748.3082
30
0.0000
0
VERTEX
8
MURS
10
247.3179
20
-748.8787
30
0.0000
0
SEQEND
8
MURS
0
LINE
8
DIAGONALES
10
571.4301
20
-640.3453
30
0.0000
11
361.7030
21
-733.7379
31
0.0000
0
LINE
8
DIAGONALES
10
246.7382
20
-639.5019
30
0.0000
11
361.7030
21
-733.7379
31
0.0000
0
LINE
8
DIAGONALES
10
361.7030
20
-733.7379
30
0.0000
11
247.3179
21
-748.8787
31
0.0000
0
TEXT
8
COTES
10
409.0841
20
-639.9236
30
0.0000
40
12.0000
1
325
50
-0.1488
7
STANDARD
72
1
73
2
11
409.0841
21
-639.9236
31
0.0000
0
TEXT
8
COTES
10
571.9977
20
-686.9414
30
0.0000
40
12.0000
1
93
50
-89.3021
7
STANDARD
72
1
73
2
11
571.9977
21
-686.9414
31
0.0000
0
TEXT
8
COTES
10
467.1341
20
-733.6377
30
0.0000
40
12.0000
1
212
50
0.0544
7
STANDARD
72
1
73
2
11
467.1341
21
-733.6377
31
0.0000
0
TEXT
8
COTES
10
361.6082
20
-741.0231
30
0.0000
40
12.0000
1
14
50
89.2548
7
STANDARD
72
1
73
2
11
361.6082
21
-741.0231
31
0.0000
0
TEXT
8
COTES
10
304.4157
20
-748.5935
30
0.0000
40
12.0000
1
114
50
0.2862
7
STANDARD
72
1
73
2
11
304.4157
21
-748.5935
31
0.0000
0
TEXT
8
COTES
10
247.0281
20
-694.1903
30
0.0000
40
12.0000
1
110
50
-89.6963
7
STANDARD
72
1
73
2
11
247.0281
21
-694.1903
31
0.0000
0
TEXT
8
COTES
10
466.5665
20
-687.0416
30
0.0000
40
12.0000
1
228
50
24.0037
7
STANDARD
72
1
73
2
11
466.5665
21
-687.0416
31
0.0000
0
TEXT
8
COTES
10
304.2206
20
-686.6199
30
0.0000
40
12.0000
1
149
50
-39.3413
7
STANDARD
72
1
73
2
11
304.2206
21
-686.6199
31
0.0000
0
TEXT
8
COTES
10
304.5105
20
-741.3083
30
0.0000
40
12.0000
1
115
50
7.5402
7
STANDARD
72
1
73
2
11
304.5105
21
-741.3083
31
0.0000
0
TEXT
8
NOMS
10
409.6517
20
-614.5019
30
0.0000
40
25.0000
1
PIECE_4
50
0.0000
7
STANDARD
72
1
73
2
11
409.6517
21
-614.5019
31
0.0000
0
POLYLINE
8
MURS
66
1
70
1
10
0.0000
20
0.0000
30
0.0000
0
VERTEX
8
MURS
10
722.5653
20
-656.4620
30
0.0000
0
VERTEX
8
MURS
10
823.5692
20
-657.0455
30
0.0000
0
VERTEX
8
MURS
10
761.7217
20
-748.1683
30
0.0000
0
VERTEX
8
MURS
10
723.5658
20
-748.8787
30
0.0000
0
SEQEND
8
MURS
0
LINE
8
DIAGONALES
10
723.5658
20
-748.8787
30
0.0000
11
823.5692
21
-657.0455
31
0.0000
0
TEXT
8
COTES
10
773.0673
20
-656.7537
30
0.0000
40
12.0000
1
102
50
-0.3310
7
STANDARD
72
1
73
2
11
773.0673
21
-656.7537
31
0.0000
0
TEXT
8
COTES
10
792.6455
20
-702.6069
30
0.0000
40
12.0000
1
109
50
55.8342
7
STANDARD
72
1
73
2
11
792.6455
21
-702.6069
31
0.0000
0
TEXT
8
COTES
10
742.6438
20
-748.5235
30
0.0000
40
12.0000
1
37
50
1.0666
7
STANDARD
72
1
73
2
11
742.6438
21
-748.5235
31
0.0000
0
TEXT
8
COTES
10
723.0656
20
-702.6703
30
0.0000
40
12.0000
1
93
50
-89.3797
7
STANDARD
72
1
73
2
11
723.0656
21
-702.6703
31
0.0000
0
TEXT
8
COTES
10
773.5675
20
-702.9621
30
0.0000
40
12.0000
1
136
50
42.5613
7
STANDARD
72
1
73
2
11
773.5675
21
-702.9621
31
0.0000
0
TEXT
8
NOMS
10
773.0673
20
-639.6280
30
0.0000
40
16.8340
1
PIECE_5
50
0.0000
7
STANDARD
72
1
73
2
11
773.0673
21
-639.6280
31
0.0000
0
POLYLINE
8
MURS
66
1
70
1
10
0.0000
20
0.0000
30
0.0000
0
VERTEX
8
MURS
10
99.6385
20
-898.8936
30
0.0000
0
VERTEX
8
MURS
10
181.5851
20
-898.8787
30
0.0000
0
VERTEX
8
MURS
10
181.4690
20
-1060.9266
30
0.0000
0
VERTEX
8
MURS
10
214.3529
20
-1060.9748
30
0.0000
0
VERTEX
8
MURS
10
214.2368
20
-1175.0226
30
0.0000
0
VERTEX
8
MURS
10
184.1207
20
-1175.0704
30
0.0000
0
VERTEX
8
MURS
10
183.4696
20
-1202.9405
30
0.0000
0
VERTEX
8
MURS
10
0.3078
20
-1203.0459
30
0.0000
0
VERTEX
8
MURS
10
0.0000
20
-980.4766
30
0.0000
0
VERTEX
8
MURS
10
99.6918
20
-980.9085
30
0.0000
0
SEQEND
8
MURS
0
LINE
8
DIAGONALES
10
99.6918
20
-980.9085
30
0.0000
11
181.5851
21
-898.8787
31
0.0000
0
LINE
8
DIAGONALES
10
99.6918
20
-980.9085
30
0.0000
11
184.1207
21
-1175.0704
31
0.0000
0
LINE
8
DIAGONALES
10
99.6918
20
-980.9085
30
0.0000
11
183.4696
21
-1202.9405
31
0.0000
0
LINE
8
DIAGONALES
10
99.6918
20
-980.9085
30
0.0000
11
0.3078
21
-1203.0459
31
0.0000
0
TEXT
8
COTES
10
140.6118
20
-898.8862
30
0.0000
40
12.0000
1
82
50
0.0104
7
STANDARD
72
1
73
2
11
140.6118
21
-898.8862
31
0.0000
0
TEXT
8
COTES
10
181.5271
20
-979.9027
30
0.0000
40
12.0000
1
162
50
89.9590
7
STANDARD
72
1
73
2
11
181.5271
21
-979.9027
31
0.0000
0
TEXT
8
COTES
10
197.9110
20
-1060.9507
30
0.0000
40
12.0000
1
33
50
-0.0839
7
STANDARD
72
1
73
2
11
197.9110
21
-1060.9507
31
0.0000
0
TEXT
8
COTES
10
214.2949
20
-1117.9987
30
0.0000
40
12.0000
1
114
50
89.9417
7
STANDARD
72
1
73
2
11
214.2949
21
-1117.9987
31
0.0000
0
TEXT
8
COTES
10
199.1788
20
-1175.0465
30
0.0000
40
12.0000
1
30
50
0.0909
7
STANDARD
72
1
73
2
11
199.1788
21
-1175.0465
31
0.0000
0
TEXT
8
COTES
10
183.7952
20
-1189.0055
30
0.0000
40
12.0000
1
29
50
88.6616
7
STANDARD
72
1
73
2
11
183.7952
21
-1189.0055
31
0.0000
0
TEXT
8
COTES
10
91.8887
20
-1202.9932
30
0.0000
40
12.0000
1
183
50
0.0330
7
STANDARD
72
1
73
2
11
91.8887
21
-1202.9932
31
0.0000
0
TEXT
8
COTES
10
0.1539
20
-1091.7612
30
0.0000
40
12.0000
1
223
50
-89.9208
7
STANDARD
72
1
73
2
11
0.1539
21
-1091.7612
31
0.0000
0
TEXT
8
COTES
10
49.8459
20
-980.6925
30
0.0000
40
12.0000
1
100
50
-0.2482
7
STANDARD
72
1
73
2
11
49.8459
21
-980.6925
31
0.0000
0
TEXT
8
COTES
10
99.6651
20
-939.9010
30
0.0000
40
12.0000
1
82
50
-89.9627
7
STANDARD
72
1
73
2
11
99.6651
21
-939.9010
31
0.0000
0
TEXT
8
COTES
10
140.6385
20
-939.8936
30
0.0000
40
12.0000
1
116
50
45.0477
7
STANDARD
72
1
73
2
11
140.6385
21
-939.8936
31
0.0000
0
TEXT
8
COTES
10
141.9063
20
-1077.9895
30
0.0000
40
12.0000
1
213
50
-66.4988
7
STANDARD
72
1
73
2
11
141.9063
21
-1077.9895
31
0.0000
0
TEXT
8
COTES
10
141.5807
20
-1091.9245
30
0.0000
40
12.0000
1
236
50
-69.3274
7
STANDARD
72
1
73
2
11
141.5807
21
-1091.9245
31
0.0000
0
TEXT
8
COTES
10
49.9998
20
-1091.9772
30
0.0000
40
12.0000
1
243
50
65.8963
7
STANDARD
72
1
73
2
11
49.9998
21
-1091.9772
31
0.0000
0
TEXT
8
NOMS
10
107.1764
20
-873.8787
30
0.0000
40
25.0000
1
PIECE_6
50
0.0000
7
STANDARD
72
1
73
2
11
107.1764
21
-873.8787
31
0.0000
0
ENDSEC
0
EOF
